<svg xmlns="http://www.w3.org/2000/svg" width="512" height="512" enable-background="new 0 0 512 512" viewBox="0 0 512 512"><path fill="none" stroke="#000" stroke-linecap="round" stroke-linejoin="round" stroke-miterlimit="2.613" stroke-width="18" d="M214.951 256.352H26.781M485.883 256.352H297.685M86.028 78.847H26.781M485.883 78.847H168.738M137.72 433.861H26.781M485.883 433.861H220.431"/><path d="M127.409 129.193c-27.78 0-50.381-22.585-50.381-50.347 0-27.768 22.601-50.357 50.381-50.357 27.752 0 50.33 22.59 50.33 50.357C177.738 106.608 155.161 129.193 127.409 129.193zM127.409 46.489c-17.855 0-32.381 14.516-32.381 32.357 0 17.836 14.526 32.347 32.381 32.347 17.827 0 32.33-14.511 32.33-32.347C159.738 61.005 145.235 46.489 127.409 46.489zM256.332 306.709c-27.78 0-50.381-22.59-50.381-50.357 0-27.765 22.601-50.353 50.381-50.353 27.765 0 50.353 22.588 50.353 50.353C306.685 284.119 284.097 306.709 256.332 306.709zM256.332 223.999c-17.855 0-32.381 14.514-32.381 32.353 0 17.842 14.526 32.357 32.381 32.357 17.84 0 32.353-14.516 32.353-32.357C288.685 238.513 274.172 223.999 256.332 223.999zM179.079 484.214c-27.768 0-50.359-22.588-50.359-50.353 0-27.764 22.591-50.352 50.359-50.352 27.764 0 50.352 22.588 50.352 50.352C229.431 461.626 206.843 484.214 179.079 484.214zM179.079 401.51c-17.843 0-32.359 14.513-32.359 32.352s14.516 32.353 32.359 32.353c17.839 0 32.352-14.514 32.352-32.353S196.917 401.51 179.079 401.51z"/></svg>